<svg width="383" height="39" viewBox="0 0 383 39" fill="#ffffff" xmlns="http://www.w3.org/2000/svg">
  <path d="M360.23 38.3602C354.536 38.3602 350.35 35.9108 350.35 31.2977C350.35 30.2192 350.631 28.9912 351.186 27.9127L352.243 25.7556H361.287L359.224 30.609C358.67 32.0839 359.165 32.8636 360.563 32.8636C362.737 32.8636 363.802 30.9014 363.972 28.9912C363.972 26.9316 363.188 25.8985 361.568 22.2731L360.955 20.9021C359.505 17.712 358.389 15.1131 358.389 11.9749C358.389 5.74409 364.253 1.4754 372.794 1.4754C378.044 1.4754 382.23 4.12628 382.23 8.34298C382.23 9.4735 381.949 10.6495 381.446 11.923L380.44 14.5219H371.226L373.57 8.83027C373.903 7.90117 373.63 6.96557 372.121 6.96557C369.829 6.96557 368.882 8.68084 368.66 10.8379C368.66 12.7481 369.555 15.3015 370.672 17.5106L371.345 18.836C372.742 21.6298 374.251 25.1123 374.251 27.5683C374.243 34.137 368.379 38.3602 360.23 38.3602ZM308.31 37.9184L306.971 26.048H306.358L301.78 37.9184H291.73L307.082 1.91722H317.243L311.327 14.0346H312.111L321.266 1.91722H331.759L315.402 22.4615L317.805 37.9119H308.31V37.9184ZM156.676 38.3602C146.575 38.3602 144.785 30.1217 149.082 20.5058L150.479 17.3676C154.332 8.73282 160.026 1.4754 169.018 1.4754C179.12 1.4754 180.577 9.76588 176.554 19.2843L175.215 22.4745C171.525 31.1938 165.609 38.3602 156.676 38.3602ZM167.954 7.16048C166.556 7.16048 165.609 7.89467 164.996 9.31757L156.122 30.0697C155.9 30.661 155.841 30.9014 155.841 31.2003C155.841 31.889 156.514 32.4282 157.741 32.4282C159.139 32.4282 160.144 31.7395 160.758 30.2712L169.521 9.62294C169.691 9.27858 169.854 8.73931 169.854 8.44694C169.854 7.75173 169.181 7.16048 167.954 7.16048ZM332.987 38.3602C324.838 38.3602 321.096 33.5523 324.113 26.3923L334.496 1.91722H344.715L332.432 30.7584C331.929 31.9344 332.432 32.6686 333.882 32.6686C335.168 32.6686 335.834 32.0774 336.448 30.609L348.731 1.91072H358.84L347.341 28.9847C346.002 32.1748 344.102 34.5788 341.816 36.0992C339.576 37.574 336.618 38.3602 332.987 38.3602ZM249.801 37.9184L265.101 1.91722H273.864C282.405 1.91722 286.983 7.3619 284.136 14.8662L283.803 15.7498C281.126 22.7668 274.197 25.4112 265.323 25.4112L259.962 37.9184H249.801ZM267.667 19.7651L267.948 19.7131C270.403 19.7131 272.245 19.0764 273.199 16.8674L275.373 11.715C276.43 9.25909 276.208 7.64128 273.139 7.64128H272.858L267.667 19.7651ZM277.214 37.9184L292.514 1.91722H302.675L287.375 37.9184H277.214ZM236.845 37.9184L244.27 21.4349H243.375L233.266 37.9184H226.396L230.471 21.4349H229.687L222.928 37.9184H214.608L229.849 1.91722H240.402L236.157 21.0971H236.941L249.002 1.91722H260.672L245.32 37.9184H236.845ZM194.361 37.9184L199.833 24.9694L203.072 1.91722H212.449L209.21 14.6713H209.713L217.137 1.91722H227.128L210.6 25.1188L205.187 37.9184H194.361V37.9184ZM172.198 37.9184L187.55 1.91722H197.711L184.984 31.785H193.022L190.456 37.9184H172.198Z" fill="white"></path>
  <path d="M0 23.711C0 31.8032 13.5372 38.3602 30.0716 38.3602C41.8908 38.3602 52.2804 35.0289 57.2777 30.1934C57.4972 29.9821 57.7793 29.8702 58.0803 29.8889C60.5131 30.0256 63.9053 30.0256 66.3318 29.8889C66.6328 29.8702 66.9212 29.9821 67.1344 30.1934C72.1317 35.0351 82.5213 38.3602 94.3405 38.3602C110.875 38.3602 124.412 31.8032 124.412 23.711C124.412 12.9773 104.185 7.769 89.9389 8.96853C89.6191 8.99339 89.3119 8.8753 89.0862 8.64534C84.1955 3.61103 74.1131 0 62.2061 0C50.3492 0 40.0725 3.61103 35.1692 8.64534C34.9435 8.8753 34.6363 8.99339 34.3165 8.96853C20.3654 7.75657 0 12.94 0 23.711ZM6.15101 23.711C6.15101 16.6443 20.4093 13.8785 30.0716 13.8785C38.3043 13.8785 51.666 16.1098 54.0988 21.747C54.4186 22.4804 55.0644 23.0273 55.8607 23.1268C56.9454 23.2697 58.1117 23.3816 59.14 23.4251C59.861 23.4562 60.4003 22.7787 60.2247 22.0826C58.839 16.4827 51.3086 12.2377 42.7059 10.2054C42.2482 10.0935 42.1479 9.47818 42.5554 9.23578C47.5151 6.30221 55.8231 5.06539 62.2061 5.06539C70.4576 5.06539 86.1768 7.78764 86.1768 15.1029C86.296 18.8258 81.8003 22.2815 73.392 24.0963C72.5581 24.2766 72.232 25.3021 72.8402 25.8925C73.555 26.5886 74.4642 27.2785 75.3608 27.8192C75.8499 28.1113 76.4393 28.2046 76.9973 28.0803C86.2019 25.9857 92.7166 20.1186 92.3404 15.0967C92.2902 14.4566 92.773 13.9283 93.4251 13.9345C108.404 14.0774 118.267 17.8687 118.267 23.711C118.267 30.268 104.009 33.0338 94.3468 33.0338C84.9416 33.0338 71.3542 30.5228 70.0124 24.6868C69.191 19.609 75.9001 16.1844 83.4305 14.9103C84.2017 14.7797 84.5967 13.891 84.139 13.2632C83.6061 12.5361 82.8913 11.8337 82.1075 11.2992C81.656 10.9885 81.0917 10.8704 80.5525 10.9574C73.3481 12.1134 63.7799 17.1602 64.0558 24.1523C64.0808 24.7613 63.6169 25.2772 63.0024 25.2834C54.2743 25.4015 41.6463 22.9527 38.8059 17.3901C38.461 16.7127 37.8152 16.2217 37.0565 16.1222C35.8966 15.9668 34.6488 15.8612 33.4888 15.8115C32.7489 15.7804 32.1972 16.4703 32.3978 17.1726C34.0531 22.99 41.7027 26.8745 49.2143 28.5837C49.6971 28.6956 49.7724 29.3544 49.3209 29.5657C44.1794 31.9585 36.2414 33.0338 30.0779 33.0338C20.4093 33.0338 6.15101 30.268 6.15101 23.711Z" fill="white"></path>
</svg>
